<svg width="20" height="20" viewBox="0 0 20 20" fill="none" xmlns="http://www.w3.org/2000/svg">
<path fill-rule="evenodd" clip-rule="evenodd" d="M1 0H19C19.2652 0 19.5196 0.175593 19.7071 0.488154C19.8946 0.800715 20 1.22464 20 1.66667C20 2.10869 19.8946 2.53262 19.7071 2.84518C19.5196 3.15774 19.2652 3.33333 19 3.33333H1C0.734784 3.33333 0.480429 3.15774 0.292892 2.84518C0.105356 2.53262 0 2.10869 0 1.66667C0 1.22464 0.105356 0.800715 0.292892 0.488154C0.480429 0.175593 0.734784 0 1 0ZM1 16.6667H19C19.2652 16.6667 19.5196 16.8423 19.7071 17.1548C19.8946 17.4674 20 17.8913 20 18.3333C20 18.7754 19.8946 19.1993 19.7071 19.5118C19.5196 19.8244 19.2652 20 19 20H1C0.734784 20 0.480429 19.8244 0.292892 19.5118C0.105356 19.1993 0 18.7754 0 18.3333C0 17.8913 0.105356 17.4674 0.292892 17.1548C0.480429 16.8423 0.734784 16.6667 1 16.6667ZM1 8.33333H19C19.2652 8.33333 19.5196 8.50893 19.7071 8.82149C19.8946 9.13405 20 9.55797 20 10C20 10.442 19.8946 10.866 19.7071 11.1785C19.5196 11.4911 19.2652 11.6667 19 11.6667H1C0.734784 11.6667 0.480429 11.4911 0.292892 11.1785C0.105356 10.866 0 10.442 0 10C0 9.55797 0.105356 9.13405 0.292892 8.82149C0.480429 8.50893 0.734784 8.33333 1 8.33333Z" fill="#1B1C1E"/>
</svg>
